<svg display="none" xmlns="http://www.w3.org/2000/svg">
          <symbol id="support_icon">
            <path
              d="M67.1667 54.3333V71h-8.3334V54.3333h8.3334zm-50 0V71H13c-2.2917 0-4.1667-1.875-4.1667-4.1667v-12.5h8.3334zM38 .1666C17.2917.1666.5 16.9583.5 37.6666v29.1667c0 6.9167 5.5833 12.5 12.5 12.5h12.5V46H8.8333v-8.3334C8.8333 21.5416 21.875 8.5 38 8.5s29.1667 13.0416 29.1667 29.1666V46H50.5v33.3333h16.6667V83.5H38v8.3333h25c6.9167 0 12.5-5.5833 12.5-12.5V37.6666c0-20.7083-16.7917-37.5-37.5-37.5z"
              fill="#3077C6"
            />
          </symbol>
          <symbol id="device_icon">
            <path
              d="M16.6667 9h75V.6666h-75c-4.5834 0-8.3334 3.75-8.3334 8.3334v45.8333H0v12.5h58.3333v-12.5H16.6667V9zm79.1666 8.3333h-25c-2.2916 0-4.1666 1.875-4.1666 4.1667v41.6666c0 2.2917 1.875 4.1667 4.1666 4.1667h25c2.2917 0 4.1667-1.875 4.1667-4.1667V21.5c0-2.2917-1.875-4.1667-4.1667-4.1667zm-4.1666 37.5H75V25.6666h16.6667v29.1667z"
              fill="#3077C6"
            />
          </symbol>
          <symbol id="like_icon">
            <path
              d="M83.5 29.3333H57.2083l3.9584-19.0417.125-1.3333c0-1.7083-.7084-3.2917-1.8334-4.4167L55.0417.1666 27.625 27.625c-1.5417 1.5-2.4583 3.5833-2.4583 5.875v41.6666c0 4.5834 3.75 8.3334 8.3333 8.3334H71c3.4583 0 6.4167-2.0834 7.6667-5.0834L91.25 49.0416c.375-.9583.5833-1.9583.5833-3.0416v-8.3334c0-4.5833-3.75-8.3333-8.3333-8.3333zM83.5 46L71 75.1666H33.5V33.5l18.0833-18.0834-4.625 22.25H83.5V46zM.1667 33.5h16.6666v50H.1667v-50z"
              fill="#3077C6"
            />
          </symbol>
          <symbol id="message_icon">
            <path d="M54.5 8.6667v29.1667H13.5417l-4.875 4.875V8.6667H54.5zM58.6667.3334H4.5C2.2083.3334.3333 2.2084.3333 4.5v58.3334L17 46.1667h41.6667c2.2916 0 4.1666-1.875 4.1666-4.1667V4.5c0-2.2916-1.875-4.1666-4.1666-4.1666zM79.5 17h-8.3333v37.5H17v8.3334C17 65.125 18.875 67 21.1667 67H67l16.6667 16.6667v-62.5C83.6667 18.875 81.7917 17 79.5 17z" fill="#3077C6"/>
          </symbol>
          <symbol id="account-button">
            <path d="M20 0C8.96 0 0 8.96 0 20C0 31.04 8.96 40 20 40C31.04 40 40 31.04 40 20C40 8.96 31.04 0 20 0ZM20 6C23.32 6 26 8.68 26 12C26 15.32 23.32 18 20 18C16.68 18 14 15.32 14 12C14 8.68 16.68 6 20 6ZM20 34.4C15 34.4 10.58 31.84 8 27.96C8.06 23.98 16 21.8 20 21.8C23.98 21.8 31.94 23.98 32 27.96C29.42 31.84 25 34.4 20 34.4Z" fill="white"/>
          </symbol>
           <symbol id="night-button">
            <path d="M25.6101 10.6101V4.38992H19.3899L15 0L10.6101 4.38992H4.38992V10.6101L0 15L4.38992 19.3899V25.6101H10.6101L15 30L19.3899 25.6101H25.6101V19.3899L30 15L25.6101 10.6101ZM15 22.9576C13.8196 22.9576 12.6923 22.6923 11.6844 22.2281C14.4164 20.9682 16.3263 18.2096 16.3263 15C16.3263 11.7905 14.4164 9.03183 11.6844 7.77188C12.6923 7.30769 13.8196 7.04244 15 7.04244C19.3899 7.04244 22.9576 10.6101 22.9576 15C22.9576 19.3899 19.3899 22.9576 15 22.9576Z" fill="white"/>
          </symbol>
         <symbol id="search-icon">
            <path d="M11.4351 10.0629H10.7124L10.4563 9.81589C11.3528 8.77301 11.8925 7.4191 11.8925 5.94625C11.8925 2.66209 9.23042 0 5.94625 0C2.66209 0 0 2.66209 0 5.94625C0 9.23042 2.66209 11.8925 5.94625 11.8925C7.4191 11.8925 8.77301 11.3528 9.81589 10.4563L10.0629 10.7124V11.4351L14.6369 16L16 14.6369L11.4351 10.0629ZM5.94625 10.0629C3.66838 10.0629 1.82962 8.22413 1.82962 5.94625C1.82962 3.66838 3.66838 1.82962 5.94625 1.82962C8.22413 1.82962 10.0629 3.66838 10.0629 5.94625C10.0629 8.22413 8.22413 10.0629 5.94625 10.0629Z" fill="#BFBFBF"/>
          </symbol>
          <symbol id="guest-loves-btn"> 
          <g filter="url(#filter0_d)">
          <circle cx="24" cy="20" r="20" fill="#F3F3F4"/>
          <path d="M19.9412 29.8235L26.1 21.6118C26.6333 20.9007 26.6333 19.9229 26.1 19.2118L19.9412 11" stroke="#383838" stroke-width="2"/>
          </g>
            <defs>
              <filter id="filter0_d" x="0" y="0" width="48" height="48" filterUnits="userSpaceOnUse" color-interpolation-filters="sRGB">
              <feFlood flood-opacity="0" result="BackgroundImageFix"/>
              <feColorMatrix in="SourceAlpha" type="matrix" values="0 0 0 0 0 0 0 0 0 0 0 0 0 0 0 0 0 0 127 0"/>
              <feOffset dy="4"/>
              <feGaussianBlur stdDeviation="2"/>
                <feColorMatrix type="matrix" values="0 0 0 0 0 0 0 0 0 0 0 0 0 0 0 0 0 0 0.25 0"/>
              <feBlend mode="normal" in2="BackgroundImageFix" result="effect1_dropShadow"/>
              <feBlend mode="normal" in="SourceGraphic" in2="effect1_dropShadow" result="shape"/>
              </filter>
              </defs>
          </symbol>
          <symbol id="btn-slider"> 
          <path d="M1.17647 1.00001L9.38823 7.15884C10.0993 7.69217 11.0771 7.69217 11.7882 7.15884L20 1.00001" stroke="#383838" stroke-width="2"/>
          </symbol>

        </svg>